<svg width="54" height="54" viewBox="0 0 54 54" fill="none" xmlns="http://www.w3.org/2000/svg">
<circle cx="27" cy="27" r="20.25" fill="white"/>
<path d="M27.125 37.3C27.7739 37.3 28.3 36.7739 28.3 36.125C28.3 35.4761 27.7739 34.95 27.125 34.95C26.4761 34.95 25.95 35.4761 25.95 36.125C25.95 36.7739 26.4761 37.3 27.125 37.3Z" fill="#292F36" stroke="#292F36" stroke-width="0.1"/>
<path d="M27 32V30.572C27 29.3817 27.5949 28.2701 28.5854 27.6098L29.5828 26.9448C31.0929 25.938 32 24.2432 32 22.4282V22C32 19.2386 29.7614 17 27 17V17C24.2386 17 22 19.2386 22 22V22" stroke="#292F36" stroke-width="2"/>
</svg>