<svg width="54" height="54" viewBox="0 0 54 54" fill="none" xmlns="http://www.w3.org/2000/svg">
<circle cx="27" cy="27" r="20.25" fill="white"/>
<path d="M18.7 33.15V31.25H20.7V24.6C20.7 23.2858 21.1166 22.1221 21.95 21.1087C22.7833 20.0796 23.8666 19.4067 25.2 19.09V18.425C25.2 18.0292 25.3416 17.6967 25.625 17.4275C25.925 17.1425 26.2833 17 26.7 17C27.1166 17 27.4666 17.1425 27.75 17.4275C28.05 17.6967 28.2 18.0292 28.2 18.425V19.09C29.5333 19.4067 30.6166 20.0796 31.45 21.1087C32.2833 22.1221 32.7 23.2858 32.7 24.6V31.25H34.7V33.15H18.7ZM26.7 36C26.15 36 25.675 35.8179 25.275 35.4537C24.8916 35.0737 24.7 34.6225 24.7 34.1H28.7C28.7 34.6225 28.5 35.0737 28.1 35.4537C27.7166 35.8179 27.25 36 26.7 36ZM22.7 31.25H30.7V24.6C30.7 23.555 30.3083 22.6604 29.525 21.9162C28.7416 21.1721 27.8 20.8 26.7 20.8C25.6 20.8 24.6583 21.1721 23.875 21.9162C23.0916 22.6604 22.7 23.555 22.7 24.6V31.25Z" fill="#292F36"/>
</svg>